<?xml version="1.0" standalone="no"?>
<!DOCTYPE svg PUBLIC "-//W3C//DTD SVG 20010904//EN"
 "http://www.w3.org/TR/2001/REC-SVG-20010904/DTD/svg10.dtd">
<svg version="1.0" xmlns="http://www.w3.org/2000/svg"
 width="200.000000pt" height="200.000000pt" viewBox="0 0 200.000000 200.000000"
 preserveAspectRatio="xMidYMid meet">
<metadata>
Created by potrace 1.11, written by Peter Selinger 2001-2013
</metadata>
<g transform="translate(0.000000,200.000000) scale(0.100000,-0.100000)"
fill="#000000" stroke="none">
<path d="M829 1925 c-385 -60 -701 -353 -775 -717 -23 -114 -15 -317 16 -405
29 -84 85 -167 151 -228 l55 -50 -25 -44 c-19 -35 -26 -63 -29 -127 -5 -94 7
-142 50 -197 52 -65 132 -91 235 -75 71 11 129 44 180 102 l40 45 23 -50 c25
-53 93 -123 136 -139 46 -18 154 -12 201 11 48 23 104 86 128 142 l15 36 50
-53 c67 -71 132 -100 223 -99 87 1 147 35 192 107 28 46 30 56 30 145 0 90 -8
122 -42 182 -2 3 25 28 61 56 75 60 144 160 177 253 30 86 38 281 16 386 -35
163 -107 300 -224 425 -228 241 -544 347 -884 294z m-108 -573 c219 -114 218
-496 -2 -607 -92 -47 -218 -21 -284 57 -69 82 -105 210 -86 305 43 218 212
329 372 245z m746 7 c58 -28 127 -108 154 -177 61 -160 -4 -363 -140 -434
-271 -142 -502 264 -302 529 71 94 192 128 288 82z"/>
</g>
</svg>
